# xmcd
#
# Track frame offsets: 
#        150
#        13238
#        23001
#        30748
#        40895
#        49271
#        58383
#        69696
#        80729
#        89589
#        98592
#        106358
#        113450
#        124641
#        136576
#        149683
#        164185
#        176649
#        187197
#        198943
#        209732
#        219998
#        230042
#        243359
#
# Disc length: 3387 seconds
#
# Revision: 0
# Processed by: cddbd v1.5.2PL0 Copyright (c) Steve Scherf et al.
# Submitted via: ExactAudioCopyFreeDBPlugin 1.0
#
DISCID=6b0d3918
DTITLE=Hank Ballard - Hank Ballard and The Midnighters:  Five Classic Al
DTITLE=bums plus Singles, 1954-1962 [Real Gone Music]
DYEAR=2016
DGENRE=Rhythm and Blues
TTITLE0=Sugaree
TTITLE1=Rain Down Tears
TTITLE2=Cute Little Ways
TTITLE3=House with No Windows
TTITLE4=Everybody Does Wrong Sometime
TTITLE5=So Good to Be Home
TTITLE6=Kansas City
TTITLE7=I'll Keep You Happy
TTITLE8=I'm Crying Mercy, Mercy
TTITLE9=She's Got a Whole Lot of Soul
TTITLE10=I'll Pray for You
TTITLE11=Move, Move, Move
TTITLE12=Let's Go, Let's Go, Let's Go
TTITLE13=Mona Lisa
TTITLE14=When I Need You
TTITLE15=Goodbye So Long
TTITLE16=I Must Be Crazy
TTITLE17=Just One More Chance
TTITLE18=The Hoochie Coochie Coo
TTITLE19=If You'd Forgive Me
TTITLE20=Summertime
TTITLE21=I'm Sick of You
TTITLE22=I'm Thinking of You
TTITLE23=These Young Girls
EXTD=
EXTT0=
EXTT1=
EXTT2=
EXTT3=
EXTT4=
EXTT5=
EXTT6=
EXTT7=
EXTT8=
EXTT9=
EXTT10=
EXTT11=
EXTT12=
EXTT13=
EXTT14=
EXTT15=
EXTT16=
EXTT17=
EXTT18=
EXTT19=
EXTT20=
EXTT21=
EXTT22=
EXTT23=
PLAYORDER=
